<svg xmlns="http://www.w3.org/2000/svg" viewBox="160 256 88 88" class="injected-svg" data-src="blob:http://localhost:3000/d1eda4ee-11a2-4a99-ad05-e7ecb4e7934f" xmlns:xlink="http://www.w3.org/1999/xlink" role="img"><g><path d="M243.20156985842013 260.9336993377963 C226.50473637621153 256.97232422292046, 209.3257854433189 259.83524869217695, 174.69135615364368 261.2314889149147 M241.1818853163305 259.52496735466883 C221.1103077097575 259.74828788085404, 198.59213091291952 260.88503010492155, 173.91147219225576 261.02458518665316" stroke="currentColor" stroke-width="1" fill="none"></path></g><g><path d="M172.42038572913714 259.11938789946197 C173.75103685122787 277.66532306292106, 173.14610076980463 296.4623026539802, 166.8222331589799 338.68568392258305 M173.41701738412004 261.10484878673395 C169.49703704960703 291.5706034595945, 168.73823895740594 321.1741545458713, 168.8017910725514 340.76493431793995" stroke="currentColor" stroke-width="1" fill="none"></path></g><g><path d="M168.8739158677209 341.8474419924209 C187.65908668439604 339.25780371565577, 203.47134243360023 336.371717106717, 228.73466910367165 335.20160437949255 M167.423135036485 340.8191979672547 C192.75396971844359 337.92511624215507, 216.19287987076981 337.0406995384546, 230.84068959757462 335.1236602999057" stroke="currentColor" stroke-width="1" fill="none"></path></g><g><path d="M239.34148818184025 280.47047458796624 C222.8151840659987 278.5182551298615, 210.10302516376265 281.1665815948809, 188.55767629737127 281.5512996370151 M238.0043988596201 280.0903817813434 C221.88521617576077 279.4740715569672, 207.20089097181403 279.1687469270374, 188.74540325742745 279.8421196061911" stroke="currentColor" stroke-width="1" fill="none"></path></g><g><path d="M190.73351913832042 281.8631609717994 C189.61759104881963 292.72876467813256, 185.00227756962843 308.2826219843835, 185.85786553688573 314.7500976446976 M189.31823730294337 279.15249426435815 C188.30607374309378 287.81914907002783, 187.50736563178714 297.00115670411276, 185.67785948827589 315.26042371536477" stroke="currentColor" stroke-width="1" fill="none"></path></g><g><path d="M236.72268283933298 298.48147190235784 C226.61187727519174 297.11954636974417, 210.66050629642544 298.6635521011793, 201.11480933817276 294.9247909738626 M238.2764203344962 299.06657570759666 C229.1590445925359 298.7839137200028, 223.04805289807757 297.4323746209596, 201.4375475841798 296.57546016728463" stroke="currentColor" stroke-width="1" fill="none"></path></g><g><path d="M200.08326872094554 295.75739571047814 C200.9002264307892 301.2576742470737, 200.31548206769781 309.8986964325671, 200.67031965117582 316.73628914936455 M200.10943861384382 296.1081853075546 C200.76745600233178 300.868604988086, 202.29279664150994 306.6384716513733, 202.15695058453298 317.51441774632036" stroke="currentColor" stroke-width="1" fill="none"></path></g><g><path d="M236.7389421005744 309.4900903268049 C230.7882125015162 310.9806609682997, 224.93232718872494 310.90903700870075, 212.11938057992887 310.94120962182956 M236.6370333580424 311.3502303149859 C229.59934922762784 310.1427754903461, 223.57517024602683 310.3289860665189, 213.99122389190555 310.7000366243656" stroke="currentColor" stroke-width="1" fill="none"></path></g><g><path d="M214.3957247320337 310.56175312555683 C213.2479891624156 313.56378130182344, 213.55388049819473 317.843335913417, 213.62101070582128 320.0802481176963 M213.94141231578658 311.10293778062635 C214.1449939401395 314.9692955273791, 214.31831472466365 318.87157179121965, 214.1158807378931 320.856755200164" stroke="currentColor" stroke-width="1" fill="none"></path></g></svg>