<svg xmlns="http://www.w3.org/2000/svg" viewBox="0 0 512 512"><g><path d="M238.4178478849831 81.61013518480502 C240.53974166383918 70.19842798496784, 239.43589643470804 55.842208555919704, 238.8574219089534 50.598077310908806 M239.0051956305252 80.42510457274965 C238.42019348300312 69.93579882281506, 237.79011998175764 61.31275029901924, 238.78283255842382 51.625127494925614" stroke="currentColor" stroke-width="1" fill="none"></path></g><g><path d="M238.07764744284327 52.21212183705924 C173.52185032938715 50.290041716207625, 109.9421583178086 56.11618833403704, 59.56204482762403 55.251408509428536 M237.61996401737952 50.957226021989335 C188.6116716557141 51.63881119527737, 140.85881929687764 53.5177805464165, 61.544115157472525 56.79638484290051" stroke="currentColor" stroke-width="1" fill="none"></path></g><g><path d="M61.04623685564771 55.74540068111934 C65.19989493047954 142.99658517132553, 72.65300535746512 230.50205772592912, 87.93488164481167 402.92204746508173 M61.31053471552567 56.379877178869265 C67.52185229021055 148.17049601142756, 73.82075369462032 238.73172465451592, 87.61298070924902 402.76084147049363" stroke="currentColor" stroke-width="1" fill="none"></path></g><g><path d="M87.96506376865862 403.56312426396113 C118.36358355032723 402.9595517019602, 150.47214974080603 401.56169845316134, 204.0628578454082 402.8311387276413 M87.57788336604466 403.30221559369676 C115.2993475865345 403.79786376657506, 142.02517106056408 402.70572775190976, 204.60792803143818 403.5791045738759" stroke="currentColor" stroke-width="1" fill="none"></path></g><g><path d="M205.50163154110854 402.48014791232856 C208.09929776000226 381.44109219780194, 209.8599426969829 357.95669068790943, 220.50257565075893 307.45279334751723 M203.13354373318762 403.71106738076605 C208.69910479807567 374.4453857629425, 214.30246866475602 344.2616944229401, 218.5927639822045 306.0509203069123" stroke="currentColor" stroke-width="1" fill="none"></path></g><g><path d="M219 306 C219 306, 219 306, 219 306 M219 306 C219 306, 219 306, 219 306" stroke="currentColor" stroke-width="1" fill="none"></path></g><g><path d="M132.23210744279314 333.6646521537201 C141.05157251736378 334.46378526063165, 149.7830255315932 337.16143612608806, 171.22613376564087 346.82908742848383 M131.02524262764365 331.0983716077131 C140.01927251258584 333.73582332402214, 147.88539299789227 337.50908643431245, 171.3044194300353 344.72885435514365" stroke="currentColor" stroke-width="1" fill="none"></path></g><g><path d="M173.5982523439378 344.9807136806252 C170.1653924235327 351.34809201743263, 170.10825468961187 360.7913168013476, 168.99037744699504 367.17070090624213 M172.86896188059652 344.7191809599326 C171.63637936054795 348.67702600981136, 170.2068506694354 353.70305645095476, 168.79378513313586 365.68341289135265" stroke="currentColor" stroke-width="1" fill="none"></path></g><g><path d="M166.54682927228532 366.8046581325766 C160.30778813971358 367.756694611099, 151.9660005439912 371.8201943730099, 136.0867438843636 381.91498079762175 M167.5758635995031 366.0968089993052 C157.78122365081776 370.2877863055172, 148.3081673032593 375.4910489998499, 137.79121039036036 380.7430561908187" stroke="currentColor" stroke-width="1" fill="none"></path></g><g><path d="M138 381 C138 381, 138 381, 138 381 M138 381 C138 381, 138 381, 138 381" stroke="currentColor" stroke-width="1" fill="none"></path></g><g><path d="M137.96783357231521 381.1799479328745 C136.9303342070648 376.4190589395183, 133.41976238298884 368.3638784070934, 131.93795487880863 361.2978844863346 M138.3059496268472 380.9215835748788 C136.57117457031202 375.39892575656904, 134.20805616672988 371.1451726980174, 130.94391016286437 363.47322308166343" stroke="currentColor" stroke-width="1" fill="none"></path></g><g><path d="M130.10249138702085 363.17727724957274 C134.57755500517464 354.9059529608902, 139.15631326660434 346.06059431115284, 141.48589699070143 340.7694676495299 M128.33817313940952 362.11436886560034 C133.58519732142847 355.98363496603713, 135.84905486425504 348.30115822018905, 140.99667501368995 342.03521480757934" stroke="currentColor" stroke-width="1" fill="none"></path></g><g><path d="M201.57848506211937 103.36109537472508 C200.08954136043644 116.75576652309948, 200.06096623162765 127.18592001928654, 202.94095385110276 142.0584324869458 M202.50382594140106 103.62195604323712 C202.19676864405727 114.71386939524503, 202.07978391567283 127.27357916033115, 201.66891415414244 141.46043480756896" stroke="currentColor" stroke-width="1" fill="none"></path></g><g><path d="M189.63693052577003 103.16083291675527 C199.62488375680067 102.7710293768932, 212.47454365032732 101.28893754716266, 232.3728282286051 100.73362237217549 M190.2321949048148 104.51168831952505 C203.5835933775156 103.27191872180472, 217.96324664160156 103.31229754505684, 233.44044695683792 102.63619592877666" stroke="currentColor" stroke-width="1" fill="none"></path></g><g><path d="M192.5418270724903 138.71159578207227 C209.45568650809724 136.9563907809275, 224.57989695739946 135.53159017698815, 245.18724400117463 135.67399824681397 M191.44295465254822 136.98420314148032 C204.37997382590322 135.55931159063582, 218.3846223616889 135.8055996340329, 247.5049014236421 136.47485198097957" stroke="currentColor" stroke-width="1" fill="none"></path></g><g><path d="M221.07176726539146 111.64244830420942 C220.81616922982568 116.74400528673583, 222.4802820601468 122.35282833425991, 220.91748087169728 129.69040313357948 M221.71313012975585 113.14597997171965 C222.1524835659144 117.90262345598501, 221.3330561816105 121.88669983620842, 221.1583226438085 129.3029269311442" stroke="currentColor" stroke-width="1" fill="none"></path></g><g><path d="M217.18875388783545 115.78933930077389 C228.38218991620724 124.12704171338713, 237.0517717590318 137.8460837810813, 240.4528457857859 143.71744679490632 M219.70513847605113 113.3211626871801 C224.01003432176364 120.04654516237757, 229.16764088484257 125.80333916362329, 241.46470371372007 143.1734121611288" stroke="currentColor" stroke-width="1" fill="none"></path></g><g><path d="M242.068574009765 106.49275163559689 C240.82814181001504 115.94897035132587, 242.51244793775066 128.20997953072145, 240.2255134611531 146.95086535556047 M242.36510149855607 107.25261129714015 C240.42197768781244 123.07410155227174, 238.91488597618437 137.129297957165, 239.68873336731022 146.22483250008366" stroke="currentColor" stroke-width="1" fill="none"></path></g><g><path d="M281.7172817983543 105.59216066703458 C267.0187064601383 111.58669306351075, 259.0424952161059 114.83889251945031, 248.26707810236996 118.01962019660125 M281.0497140503699 106.57515098262307 C271.9398326340735 108.62308606796208, 265.4327430235765 111.95825352051322, 250.5674898693038 116.65544477186842" stroke="currentColor" stroke-width="1" fill="none"></path></g><g><path d="M250 117 C250 117, 250 117, 250 117 M250 117 C250 117, 250 117, 250 117" stroke="currentColor" stroke-width="1" fill="none"></path></g><g><path d="M250.68627424332138 115.78934507246409 C258.74420649626416 117.11157205491756, 261.655169385873 122.66716803580053, 275.844311127077 131.49261387899182 M250.48968871790393 114.84990616257623 C259.9120195576064 119.8063847154729, 270.08176314228473 126.86749819857344, 277.7035623580193 129.38404038000505" stroke="currentColor" stroke-width="1" fill="none"></path></g><g><path d="M275.894076957499 130.99164898250746 C267.20411911242604 132.95411463051943, 259.01253409488254 136.54823591183242, 248.31676730414867 142.6360857070521 M276.9217097596864 130.79656267115675 C270.17966272328925 133.52406030696645, 263.70380437296336 135.67472557568752, 248.32787595313886 142.1178498647435" stroke="currentColor" stroke-width="1" fill="none"></path></g><g><path d="M292.7180310660239 97.55086187206511 C291.23267325858137 106.66743596772044, 293.26100793492697 116.6130179926679, 292.4670300579396 139.5253218574291 M293.8169191172311 97.17424352464914 C293.6043199571057 109.03890863306972, 293.6783605479497 121.19617658064679, 291.475702921797 137.8580515738688" stroke="currentColor" stroke-width="1" fill="none"></path></g><g><path d="M271.60311004612726 94.43844744314187 C280.0895925213605 94.40037117203264, 288.0861059542647 93.30473257511849, 297.35984600227494 95.0489117693965 M272.8651861773318 94.10381614445193 C281.1988472468452 94.62348943921981, 287.2639910912026 93.50772014089846, 298.6984019173527 93.09078048206763" stroke="currentColor" stroke-width="1" fill="none"></path></g><g><path d="M318.60840855916877 101.52825331595601 C315.19668977888387 100.91012836592064, 313.6583166501597 100.15903192162361, 308.7994860604393 100.66863820434527 M317.66603958609454 101.41680864980052 C315.4617208980705 101.31099412115881, 312.57834777838127 101.36387815545494, 308.8384407857011 101.20073809525836" stroke="currentColor" stroke-width="1" fill="none"></path></g><g><path d="M310.8864980394193 100.51792973264678 C309.171454717035 107.72614729092943, 307.71438646311316 113.47958141542024, 309.67380727386274 130.97363600613696 M308.8659533255154 101.00116060485982 C308.9885071468655 105.86696666798099, 308.94457271760723 112.95764543285232, 309.6292580042744 128.54753454485441" stroke="currentColor" stroke-width="1" fill="none"></path></g><g><path d="M310.2064471306904 110.99668905256813 C311.39681623061114 110.72016036762555, 312.7059995652724 111.30135915725872, 314.04840574441306 110.82440105800632 M310.0303104762776 111.0385894553257 C310.8074118858907 110.85416935569862, 311.9347789744204 110.92144070541615, 314.1890124745003 111.01048409089739" stroke="currentColor" stroke-width="1" fill="none"></path></g><g><path d="M308.2604149230695 128.16005685700108 C315.5524127652662 130.03795197291942, 322.5990319495825 131.50389013620307, 329.2437795016805 135.5166376778923 M307.4889974795577 126.91485626836823 C314.96446981602287 129.53600700415055, 322.2508982616858 134.1005285254374, 327.72674182195175 135.2708470122332" stroke="currentColor" stroke-width="1" fill="none"></path></g><g><path d="M345.1995465717496 103.88666460136854 C344.0285488364678 115.45557675163307, 342.07832982763114 125.61607473964585, 338.19578043338987 138.64505362436088 M347.98767098771947 101.61158461334713 C344.4768309859684 112.72300345483835, 341.95488560279756 124.78180277382529, 337.05314643259334 137.64557165165542" stroke="currentColor" stroke-width="1" fill="none"></path></g><g><path d="M351.4861285469886 94.01072326614727 C357.19601969462497 109.46337218710825, 359.32885664986986 122.35840681216362, 364.7533260721407 134.79765158942294 M350.0570100717902 95.89772102536902 C357.35529749337144 110.74626766586279, 361.7261700177114 125.25714520887374, 364.92184044617613 135.9772515067928" stroke="currentColor" stroke-width="1" fill="none"></path></g><g><path d="M331.3792436703707 117.68526831896304 C343.1201611276295 115.95070580259271, 354.67332117376515 113.18875934075709, 372.9701102554819 114.46432711001289 M332.14658904596087 116.71148800935373 C348.56584546469014 115.55620615105514, 366.1053770597808 114.2419918685231, 374.08634869497973 114.65022983776375" stroke="currentColor" stroke-width="1" fill="none"></path></g><g><path d="M370.9649495259 90.2618264037832 C370.00832777470316 106.02082673772048, 370.52019154499243 123.03011213920958, 373.2207885654933 130.54002392255552 M371.3521499211105 89.54453805779166 C371.498950622813 98.53615966455015, 372.6053609137327 107.05559626043409, 372.86100839524687 130.6696870576631" stroke="currentColor" stroke-width="1" fill="none"></path></g><g><path d="M370.05871632818264 130.80939139610047 C379.96214563719474 125.02008460562546, 389.28772772684704 120.31986494634303, 396.6582357282303 114.33089924075982 M372.6915358734695 131.51971896087193 C380.93124291438187 125.05293009073685, 390.51542278663857 117.84532130156757, 398.7204453242507 113.86239219341729" stroke="currentColor" stroke-width="1" fill="none"></path></g><g><path d="M397.9888666659035 112.54532003548782 C388.8404220121241 107.01965257068841, 375.0115698891195 96.46502055467452, 369.83671319396996 90.3396313509273 M398.1607741258018 113.20828809911542 C390.85409175952435 109.27676256094541, 384.33218003191257 104.87382655147606, 369.956908074813 92.43117401937667" stroke="currentColor" stroke-width="1" fill="none"></path></g><g><path d="M222.05406693956792 163.3189954522183 C224.85278185966388 176.7935345686308, 221.46003412466126 186.91844580030073, 224.5716348539451 196.17685143074942 M223.7016023801679 163.5436393518933 C222.08888675286963 171.18860412973862, 223.55222445688835 177.62667228007047, 222.0487170803956 196.1209859249961" stroke="currentColor" stroke-width="1" fill="none"></path></g><g><path d="M223.49442049413176 197.26760753614695 C233.94291301626302 195.56061804716444, 240.39823788294808 197.14512688581917, 248.11538668950595 194.48404133239447 M222.50978077036822 197.3931161861341 C230.76822701963468 196.11052931636647, 240.14811360611256 195.53439729339513, 249.52260267417807 195.34745256833799" stroke="currentColor" stroke-width="1" fill="none"></path></g><g><path d="M249.968141946797 196.73037646765002 C248.27563951467107 188.63767682869377, 249.78724809948525 178.53506011743855, 249.45238614147968 164.77380382049859 M249.55975352304577 194.45989822535034 C248.23426129815726 187.7035923767826, 248.71580092434618 179.23549674495504, 248.5830868085614 165.435351398204" stroke="currentColor" stroke-width="1" fill="none"></path></g><g><path d="M218.63019430409932 166.86940428224065 C240.81507675342647 163.49790804900343, 263.88928663198993 163.07910471469896, 284.9908893507288 164.42631511631384 M217.49978850215643 165.09910468996523 C236.86454564925194 163.78711640024, 254.6076302786025 163.8038066614883, 286.44679888019965 163.0686390463448" stroke="currentColor" stroke-width="1" fill="none"></path></g><g><path d="M269.4093383038104 186.4516665999886 C268.4735510906361 178.55113537729076, 265.9314663384086 172.35333914669147, 266.966599059104 159.31303943265928 M267.87249935533816 187.5972677297837 C266.519606406034 179.12344277997587, 265.5818722211651 170.13711854554202, 264.9562716401902 159.8487130126239" stroke="currentColor" stroke-width="1" fill="none"></path></g><g><path d="M268.7876577710709 181.5945740284757 C275.3616252995271 179.53914998512846, 279.3994678147604 179.46732954432312, 286.0790224568136 181.06563286283904 M268.6975152374884 181.89513564824287 C273.2414211028028 179.90100998582082, 278.4202481624684 180.268865992112, 287.8932218988645 179.55476033634451" stroke="currentColor" stroke-width="1" fill="none"></path></g><g><path d="M204.27048756619646 231.8303663823708 C205.55987863057405 239.54267029842518, 205.40826324299232 246.90022779310794, 204.4500459717305 263.5215717765851 M206.274837189448 230.48425344506873 C206.6877354543623 239.38483455376718, 206.24795975703958 246.87485559159973, 205.80897853239523 264.94179831169754" stroke="currentColor" stroke-width="1" fill="none"></path></g><g><path d="M202.88147643454917 227.82946858712725 C207.75670138860713 231.97029938630988, 214.55352269232515 235.31488984035414, 224.80901536007804 243.8097983327713 M204.89314417577938 227.69218193542932 C210.8751358474323 231.2161026728768, 216.1033251209148 237.09857372854069, 224.0345276037351 243.01158173382152" stroke="currentColor" stroke-width="1" fill="none"></path></g><g><path d="M202.2676459090187 259.94305766458734 C207.1046736503119 254.650401505632, 214.81882473744616 251.77147347183032, 224.22412696975553 242.72177932635583 M203.54201874027703 258.1366615947131 C210.45828899161364 254.37328217515525, 217.81373274893318 249.32079017375312, 224.57599245485326 243.84301199682855" stroke="currentColor" stroke-width="1" fill="none"></path></g><g><path d="M229.25803047853083 226.4064764500965 C236.88526195974856 224.92007398986848, 240.95227366222267 225.3519935146734, 259.29584863124535 226.95709437893967 M227.9910259832243 224.85343626981435 C237.9065440015479 225.03813274392215, 247.60943531059502 224.41152804076793, 258.9853140515629 224.65202110492348" stroke="currentColor" stroke-width="1" fill="none"></path></g><g><path d="M258.55591148529993 225.0434065651011 C260.2129047222166 229.59263105512804, 256.6790080730211 234.79004870104288, 259.2807066702874 252.1840125044772 M258.51560923105717 224.3327705498963 C257.69036186238753 232.72459479142262, 257.18311149905725 240.51372820796834, 258.9740808829152 250.65314393236443" stroke="currentColor" stroke-width="1" fill="none"></path></g><g><path d="M256.346619184145 250.1357831577367 C253.68310306292184 251.19092293542556, 247.06190827476235 250.81816527977017, 232.88699543679624 253.49541860528876 M258.181423784861 250.51658697202936 C250.66810480207198 251.63057495422686, 245.09085139997458 253.2446958378523, 233.73342388246337 254.76253097079888" stroke="currentColor" stroke-width="1" fill="none"></path></g><g><path d="M233.99967220610446 252.88832276671636 C232.09008845968555 248.39466957963268, 233.0134641500778 240.90003358502526, 231.76776410498937 224.02283428998123 M233.12068251217494 254.3586812338181 C234.38161334656934 246.25602595396123, 231.75522121731277 239.7482140589378, 230.133614962907 226.65772342403483" stroke="currentColor" stroke-width="1" fill="none"></path></g><g><path d="M262.1039654073146 220.9468621259737 C268.9032916524418 223.0039489784592, 276.96391711096123 222.30480779004228, 285.0757994828525 221.60335215688488 M262.33468047799613 221.13339740758371 C268.02964877512096 221.22996997995523, 272.33290723640494 222.4140768917313, 285.1433687700503 222.71116912389675" stroke="currentColor" stroke-width="1" fill="none"></path></g><g><path d="M284.13598579188925 221.95987086081482 C286.2183693944187 231.3171310465198, 287.6390125834331 242.01028957405853, 286.31896491911266 250.99102361335315 M286.04854671305463 222.32417902805162 C286.6449296378041 231.96590064586266, 286.1953429570543 242.01433911377774, 286.52148113544473 251.11126258090513" stroke="currentColor" stroke-width="1" fill="none"></path></g><g><path d="M286.7324452104179 253.81047490884114 C275.93272783748944 251.31275321436132, 269.07795760425967 250.77430549126265, 262.0082978103684 252.92334136676183 M285.8189951770054 252.26952643237487 C277.3430938203161 252.0383613511903, 267.09891600714843 252.08168564042984, 262.8170354813685 251.4025588856444" stroke="currentColor" stroke-width="1" fill="none"></path></g><g><path d="M262.3973761891876 250.3753602125202 C260.04356836957476 244.20679825583238, 263.558620986343 236.22163755262414, 260.7555829595128 226.33276067915995 M262.18362450911974 251.53510227531888 C262.17105698559266 244.75356193473425, 261.69993291337477 238.32038515075473, 261.15194099265864 225.8894498177554" stroke="currentColor" stroke-width="1" fill="none"></path></g><g><path d="M294.7991489022228 245.59947362826986 C292.9542552649274 238.77199591873165, 296.1155183347214 229.8453736237351, 294.462767917856 220.03038693242726 M294.3901714879084 245.31975274995474 C293.09671694544386 238.20717661383028, 293.1507358358186 233.37740869710566, 294.20075531135166 220.76107264799242" stroke="currentColor" stroke-width="1" fill="none"></path></g><g><path d="M294.33112220059803 219.15768851706125 C296.6810829953099 223.4636808711493, 299.9794313690232 229.80810110191933, 302.92365243205427 229.79278134489158 M293.89939032283104 219.58703701318737 C296.5920736497649 223.06937024745957, 298.2151681071906 225.16960357644112, 303.23943802899004 231.4295660611904" stroke="currentColor" stroke-width="1" fill="none"></path></g><g><path d="M302.97967898809543 230.67128993484937 C304.0508916049775 226.52533124489815, 307.4720160911362 226.1452976894584, 309.32747717904675 218.76244547904494 M303.16365132777423 231.73439094500105 C304.25263828766344 228.19458314150148, 305.66873620913645 224.98696497706536, 309.3260700474929 218.03431710667405" stroke="currentColor" stroke-width="1" fill="none"></path></g><g><path d="M309.72837232821024 219.98149877790777 C308.0584828278742 229.31697281674204, 307.8330271395187 237.21298902412605, 308.8198391126323 248.35024137967972 M310.9945470394597 218.56345017673235 C310.4545722964981 226.83070881211376, 310.09931027252435 235.1885982614424, 309.71724986157005 249.37981749738395" stroke="currentColor" stroke-width="1" fill="none"></path></g><g><path d="M331.95219470840067 218.0430202456748 C328.5336125226747 218.4656509310767, 324.29312458385505 220.9608819266435, 315.6134628230824 220.0273201705169 M331.31475355764314 219.046711608582 C327.2053342840075 218.6810125569876, 323.6595171401704 220.0444734408909, 316.5642568381739 219.58735082359388" stroke="currentColor" stroke-width="1" fill="none"></path></g><g><path d="M316.35663102058766 218.33287353996718 C325.20185354998983 225.3608925627758, 336.40013804145855 227.9880730118243, 349.5367193673086 234.70470362307472 M317.0835092504571 219.37595682318036 C329.023749748015 226.27656698895288, 341.49277498174274 232.12053547263383, 349.6608583255283 236.82681479437406" stroke="currentColor" stroke-width="1" fill="none"></path></g><g><path d="M350.7538775147531 235.16780543837987 C339.3471634775145 240.3210754354596, 324.68847848970535 246.3531780113269, 312.69706975829473 255.67553677318614 M350.0837015151127 235.79274181188424 C339.1793416156732 240.65078496667746, 328.67198980810105 246.95825318292444, 313.7817723888766 253.19371723818367" stroke="currentColor" stroke-width="1" fill="none"></path></g><g><path d="M345.07343098103763 212.25545961038318 C344.0304254313286 219.84990143401794, 337.853479549982 227.983987579001, 331.674506300219 236.94054269280542 M347.9023345535651 214.12687235165012 C341.1470217135509 221.23501322463545, 335.44877864408755 230.79887875338628, 331.4067416307465 237.5338904639758" stroke="currentColor" stroke-width="1" fill="none"></path></g><g><path d="M333.7851834535409 238.18302488010207 C340.5603896306732 240.11008234929704, 344.86524271352175 246.707776026595, 355.82977099775644 252.06386077195333 M332.1536570053076 236.13079829197952 C337.21189574434425 240.32568005009213, 343.4915147502712 244.62337330358235, 355.20885515577885 252.2989999041324" stroke="currentColor" stroke-width="1" fill="none"></path></g><g><path d="M357.4567918040122 246.21506744424534 C356.07781000387615 235.45043130034117, 358.1973349924702 224.7344752968386, 356.5151322273965 215.65852532092555 M358.055636034234 244.09047855926278 C358.81160396304267 237.52462514971575, 357.4534185395838 230.26311134574783, 357.6136809854062 213.25743475390388" stroke="currentColor" stroke-width="1" fill="none"></path></g><g><path d="M356.3368298326902 212.4353993130601 C363.1151219350835 215.97001627174714, 366.5869105674011 219.84586591510592, 370.27655591169565 221.62611914898608 M356.97836233807504 214.77262024158375 C362.83574825412256 215.94248415980428, 366.7545264577544 219.62366494009922, 371.7426954295686 221.64682844912574" stroke="currentColor" stroke-width="1" fill="none"></path></g><g><path d="M370.8012606981801 221.8637114261975 C369.0856595886355 223.73251303297724, 365.88067306150936 225.40373239335915, 363.3432042260023 227.56006053804802 M371.0153767717609 222.2082077020927 C368.7496644516644 223.59727617314914, 367.04637371952407 224.17622248342738, 362.98800459024716 227.43555075200953" stroke="currentColor" stroke-width="1" fill="none"></path></g><g><path d="M361.4666095151285 228.79572784593208 C369.4928990770531 231.799401172109, 374.8325984288932 242.44568608728673, 379.50547799014106 252.45294028416853 M363.44309499433376 227.32562649767914 C367.18505471675 234.52144788100676, 373.876762061273 240.0826747993266, 380.3926252203345 251.1545937678447" stroke="currentColor" stroke-width="1" fill="none"></path></g><g><path d="M371.93330908896525 214.0580114277585 C380.44480648150216 216.72319406249392, 391.0024506364676 213.05897100275646, 399.9642583804485 215.18318081745605 M373.53072297472306 215.29327583153446 C380.255379906837 215.1712131526101, 388.64575751656247 214.62632106003736, 398.44593414398656 215.92677535944028" stroke="currentColor" stroke-width="1" fill="none"></path></g><g><path d="M397.1851632405455 216.39704364570068 C397.5063186978644 222.7154370324774, 397.9132058532093 232.95450404488898, 397.1835211588081 245.24189958486014 M398.181647282881 214.9400478038635 C398.8369592876482 223.14567167317932, 397.92860045588196 230.4608356422282, 396.7048740098647 244.94379598981536" stroke="currentColor" stroke-width="1" fill="none"></path></g><g><path d="M396.5513118483816 246.07750969742472 C388.55958533723174 246.9372386067431, 382.2931674477557 246.0142334873825, 370.9187959685365 246.2063084525345 M396.0193270150534 244.8508431545251 C386.9320832673036 244.47536780117088, 375.60123140280916 246.002978067493, 369.8741903264973 246.7022719297893" stroke="currentColor" stroke-width="1" fill="none"></path></g><g><path d="M370.1519314021543 247.5250068372258 C368.1493022822756 233.19332103468204, 370.71646002690665 221.2907822102044, 370.7465262566977 215.1839624328732 M369.3758210079996 245.39015426898555 C368.3419846481355 237.73307849638314, 368.52817015533344 230.59589251990943, 369.95054774050703 213.75325976147911" stroke="currentColor" stroke-width="1" fill="none"></path></g><g><path d="M406.03739513110855 217.5035464898487 C408.45031364755886 216.9956206530177, 411.5099800285551 218.0130741680426, 420.2488237095277 217.73321875214452 M405.91123614250483 217.32677993496327 C408.94201059700214 217.3105978903039, 413.00374981817913 216.62112189256658, 418.9714652615246 217.06089883169687" stroke="currentColor" stroke-width="1" fill="none"></path></g><g><path d="M417.6643896154685 217.52757593792174 C413.11790842099316 228.84853251781922, 408.5017340638397 244.73217788892208, 402.71914829146374 256.3024216539474 M419.29043830886104 217.01527409739597 C412.9236048308641 228.81651268520852, 407.5079357240361 242.58551201133523, 402.0571551292348 255.45959396015874" stroke="currentColor" stroke-width="1" fill="none"></path></g><g><path d="M401.70777657192207 254.9501644900764 C410.0270406353806 254.33333430778242, 418.39065372645774 253.13509706864102, 429.45111605470595 254.58052082245896 M402.8343348889901 255.97551159810166 C409.6333617065697 255.3192090041208, 417.19003252620826 255.34190548216995, 431.1090055597243 255.07674178988853" stroke="currentColor" stroke-width="1" fill="none"></path></g><g><path d="M435.16354996186124 213.4387268603893 C429.8519469438265 223.55892222618087, 425.8306926514145 234.01887128075555, 417.3143428612728 243.76402641748246 M434.1819555078116 214.21654152711227 C429.33183346837495 223.04848596125908, 424.62548224871125 233.4939090294721, 418.2753528876025 245.0455022005533" stroke="currentColor" stroke-width="1" fill="none"></path></g><g><path d="M419.88823137915017 244.3080388691532 C425.10015893784356 246.27201884169207, 430.5732677707783 244.033385393755, 445.06017411944333 245.0602600868564 M418.7630575056229 245.20136051011892 C425.1939859510222 244.22468805950857, 433.3701288643042 245.03270170780073, 446.0034306417296 244.04196686442262" stroke="currentColor" stroke-width="1" fill="none"></path></g><g><path d="M231.6720519341358 285.5875867597589 C230.24329895893754 319.9013680022494, 226.39521959362793 353.7229774749473, 226.14070649626274 374.88312726618335 M230.8388505566225 286.7122764936756 C230.8118462034659 308.52276472765755, 228.70952835392728 328.726137006829, 225.2080750987856 375.38292479377554" stroke="currentColor" stroke-width="1" fill="none"></path></g><g><path d="M225.406759975676 377.4960271561603 C193.00907171324977 379.84507688688774, 163.90025051069742 378.5519969374987, 109.85122719027 386.3089572094126 M226.71250614448005 376.3014795239544 C180.81839040684704 378.29174370525703, 135.14937373389355 381.85319798025876, 107.87770247284298 386.22338567858054" stroke="currentColor" stroke-width="1" fill="none"></path></g><g><path d="M107.2680432386661 384.648596801134 C94.75261034447361 260.4802326509577, 84.72762440020452 136.76734546430964, 80.57591278250311 67.77446586291954 M108.29067442677002 385.5633840935509 C96.44390349544135 266.36109445074436, 86.07098576351034 147.7073645822476, 81.09676261416617 69.13319362896009" stroke="currentColor" stroke-width="1" fill="none"></path></g><g><path d="M81.73498675397096 70.65496942231472 C131.49319918349423 67.23368769551696, 177.96960422470104 65.81327504043638, 205.82352858782673 63.800917872320966 M80.8351031576942 69.36318712714746 C127.52806327074705 68.03129905287743, 176.0613879117713 66.34054217413967, 206.3095703968173 64.7824484479592" stroke="currentColor" stroke-width="1" fill="none"></path></g><g><path d="M153.9065409441922 321.0786853362048 C159.62515353821198 318.6531923748526, 169.38497935709955 319.6410225318049, 190.8637473488117 320.04785800131555 M152.09286747410243 320.8873579014347 C160.78186430760806 320.7211564234593, 168.1837608681975 320.04630105734617, 189.81778675504677 320.1722735598063" stroke="currentColor" stroke-width="1" fill="none"></path></g><g><path d="M189.7399892473351 321.56448540348214 C187.22751377983468 325.46424923266375, 191.2859655314972 330.91320507816334, 190.61005445528886 339.8087954965013 M189.13416368381436 319.41774282155814 C190.13665038740302 326.4651725652153, 189.51063170404288 334.2910417367151, 189.92272076589072 340.23184319749697" stroke="currentColor" stroke-width="1" fill="none"></path></g><g><path d="M188.69082446109783 338.7457902707388 C184.76439890639097 342.43515266538463, 174.986641964376 340.61917573483936, 169.20047630451322 345.16762406394906 M189.7529840762999 340.15881989315034 C183.54451829724286 341.1208850413079, 178.30978010107964 341.0771571683636, 168.0021088537562 343.5007838623509" stroke="currentColor" stroke-width="1" fill="none"></path></g><g><path d="M167.67825206910106 345.2641494159006 C163.50141847881034 339.762732042124, 162.4107301435642 334.9264500338532, 149.49897173151206 323.7938896840257 M167.94156258071138 345.1966596604183 C164.5202253775111 340.2546381465126, 160.5358663451448 335.8022809385403, 151.9324121454718 323.89948683334933" stroke="currentColor" stroke-width="1" fill="none"></path></g><g><path d="M202.2395699404225 77.51558053434506 C160.12156860999764 82.80271916401936, 123.0211792774704 84.62248305446172, 99.31799598253554 85.12106318681421 M201.21240796698953 78.07968764796415 C161.3447351610481 80.76840857403114, 121.2126809435501 83.36022842599652, 99.23299143772103 86.97591108660487" stroke="currentColor" stroke-width="1" fill="none"></path></g><g><path d="M98.979952550225 86.82744518770816 C108.52054116408179 166.93352489009266, 114.57943052806259 251.30552593541282, 119.83557927122791 301.03192261134905 M99.36926777953971 85.74737354388476 C103.72474966699579 139.1077761783234, 107.48310649738004 193.80423101832014, 118.80412157609763 301.14311796681284" stroke="currentColor" stroke-width="1" fill="none"></path></g><g><path d="M173.36955055333425 106.79865942724085 C156.44389068011404 106.9205474732862, 141.15069737614644 110.02260005389284, 121.48313774493954 109.65737680528622 M174.19942753688366 105.41203977195416 C155.899592605772 106.00295812326233, 140.14831201675852 109.06195894479774, 119.4575992883468 110.57417298451989" stroke="currentColor" stroke-width="1" fill="none"></path></g><g><path d="M119.5420508238941 109.73020919693741 C125.90660531320772 165.29922618587722, 130.46994333990457 219.32066035509655, 138.55361363237216 283.4906573063069 M119.4035453870136 110.84825543080464 C123.54634059231638 147.03361342443586, 127.47279582788273 184.166049283085, 138.58286716038688 284.85306153584946" stroke="currentColor" stroke-width="1" fill="none"></path></g><g><path d="M167.95704176347186 141.3785756332616 C160.23600598042015 140.07124669187039, 154.30065814968276 142.61099935957864, 145.0443036617745 142.37288859753494 M167.7897552984848 140.9359483865097 C162.19536610414553 141.16748482378804, 154.25718896634638 143.07223207354906, 147.3882546109919 143.74610527242754" stroke="currentColor" stroke-width="1" fill="none"></path></g><g><path d="M148.19330174449124 142.94316778836435 C147.91000707004366 164.33368732798183, 149.19908207312514 185.78923903517853, 158.30897243281987 241.20143705543157 M147.7072530870858 144.8807374106468 C151.29386498326636 177.29783464198331, 155.41347289484926 211.37728797741855, 158.43690618260132 243.1385543404248" stroke="currentColor" stroke-width="1" fill="none"></path></g></svg>