<svg viewBox="0 0 78 58" xmlns="http://www.w3.org/2000/svg">
<path d="M12.1392 7.54545V8.25568H9.3125V7.54545H12.1392ZM10.1364 6.23864H10.9744V11.4375C10.9744 11.6742 11.0088 11.8518 11.0774 11.9702C11.1484 12.0862 11.2384 12.1643 11.3473 12.2045C11.4586 12.2424 11.5758 12.2614 11.6989 12.2614C11.7912 12.2614 11.867 12.2566 11.9261 12.2472C11.9853 12.2353 12.0327 12.2259 12.0682 12.2188L12.2386 12.9716C12.1818 12.9929 12.1025 13.0142 12.0007 13.0355C11.8989 13.0592 11.7699 13.071 11.6136 13.071C11.3769 13.071 11.1449 13.0201 10.9176 12.9183C10.6927 12.8165 10.5057 12.6615 10.3565 12.4531C10.2098 12.2448 10.1364 11.982 10.1364 11.6648V6.23864ZM14.3551 9.71875V13H13.517V5.72727H14.3551V8.39773H14.4261C14.554 8.116 14.7457 7.89228 15.0014 7.72656C15.2595 7.55848 15.6027 7.47443 16.0312 7.47443C16.4029 7.47443 16.7285 7.54901 17.0078 7.69815C17.2872 7.84493 17.5038 8.07102 17.6577 8.37642C17.8139 8.67945 17.892 9.06534 17.892 9.53409V13H17.054V9.59091C17.054 9.15767 16.9415 8.82268 16.7166 8.58594C16.4941 8.34683 16.1851 8.22727 15.7898 8.22727C15.5152 8.22727 15.2689 8.28527 15.0511 8.40128C14.8357 8.51728 14.6652 8.68655 14.5398 8.90909C14.4167 9.13163 14.3551 9.40152 14.3551 9.71875ZM19.4252 13V7.54545H20.2633V13H19.4252ZM19.8514 6.63636C19.688 6.63636 19.5472 6.58073 19.4288 6.46946C19.3128 6.35819 19.2548 6.22443 19.2548 6.06818C19.2548 5.91193 19.3128 5.77817 19.4288 5.6669C19.5472 5.55563 19.688 5.5 19.8514 5.5C20.0147 5.5 20.1544 5.55563 20.2704 5.6669C20.3888 5.77817 20.448 5.91193 20.448 6.06818C20.448 6.22443 20.3888 6.35819 20.2704 6.46946C20.1544 6.58073 20.0147 6.63636 19.8514 6.63636ZM22.6364 9.71875V13H21.7983V7.54545H22.608V8.39773H22.679C22.8068 8.12074 23.0009 7.8982 23.2614 7.73011C23.5218 7.55966 23.858 7.47443 24.2699 7.47443C24.6392 7.47443 24.9624 7.55019 25.2393 7.7017C25.5163 7.85085 25.7318 8.07812 25.8857 8.38352C26.0395 8.68655 26.1165 9.07008 26.1165 9.53409V13H25.2784V9.59091C25.2784 9.16241 25.1671 8.8286 24.9446 8.58949C24.7221 8.34801 24.4167 8.22727 24.0284 8.22727C23.7609 8.22727 23.5218 8.28527 23.3111 8.40128C23.1027 8.51728 22.9382 8.68655 22.8175 8.90909C22.6967 9.13163 22.6364 9.40152 22.6364 9.71875ZM29.8496 15.1591C29.4448 15.1591 29.0968 15.107 28.8056 15.0028C28.5144 14.901 28.2717 14.7661 28.0776 14.598C27.8858 14.4323 27.7331 14.2547 27.6195 14.0653L28.2871 13.5966C28.3629 13.696 28.4587 13.8097 28.5748 13.9375C28.6908 14.0677 28.8494 14.1802 29.0506 14.2749C29.2542 14.3719 29.5205 14.4205 29.8496 14.4205C30.29 14.4205 30.6534 14.3139 30.9398 14.1009C31.2263 13.8878 31.3695 13.554 31.3695 13.0994V11.9915H31.2985C31.2369 12.0909 31.1493 12.214 31.0357 12.3608C30.9244 12.5052 30.7634 12.6342 30.5527 12.7479C30.3444 12.8591 30.0627 12.9148 29.7076 12.9148C29.2672 12.9148 28.8719 12.8106 28.5215 12.6023C28.1735 12.3939 27.8977 12.0909 27.6941 11.6932C27.4928 11.2955 27.3922 10.8125 27.3922 10.2443C27.3922 9.68561 27.4905 9.1991 27.687 8.7848C27.8835 8.36813 28.1569 8.04616 28.5073 7.81889C28.8577 7.58925 29.2625 7.47443 29.7218 7.47443C30.0769 7.47443 30.3586 7.53362 30.5669 7.65199C30.7776 7.76799 30.9386 7.90057 31.0499 8.04972C31.1635 8.1965 31.2511 8.31723 31.3127 8.41193H31.3979V7.54545H32.2076V13.1562C32.2076 13.625 32.101 14.0062 31.888 14.2997C31.6773 14.5956 31.3932 14.8123 31.0357 14.9496C30.6806 15.0893 30.2852 15.1591 29.8496 15.1591ZM29.8212 12.1619C30.1574 12.1619 30.4415 12.085 30.6735 11.9311C30.9055 11.7772 31.0819 11.5559 31.2026 11.267C31.3233 10.9782 31.3837 10.6326 31.3837 10.2301C31.3837 9.83712 31.3245 9.49029 31.2061 9.18963C31.0878 8.88897 30.9126 8.65341 30.6806 8.48295C30.4486 8.3125 30.1621 8.22727 29.8212 8.22727C29.4661 8.22727 29.1702 8.31723 28.9334 8.49716C28.699 8.67708 28.5227 8.91856 28.4043 9.22159C28.2883 9.52462 28.2303 9.8608 28.2303 10.2301C28.2303 10.6089 28.2895 10.9439 28.4078 11.2351C28.5286 11.5239 28.7061 11.7512 28.9405 11.9169C29.1773 12.0803 29.4708 12.1619 29.8212 12.1619ZM37.6053 8.76705L36.8525 8.98011C36.8051 8.85464 36.7353 8.73272 36.6429 8.61435C36.553 8.49361 36.4299 8.39418 36.2736 8.31605C36.1174 8.23793 35.9173 8.19886 35.6735 8.19886C35.3397 8.19886 35.0615 8.2758 34.839 8.42969C34.6188 8.5812 34.5087 8.77415 34.5087 9.00852C34.5087 9.21686 34.5845 9.38139 34.736 9.50213C34.8875 9.62287 35.1242 9.72348 35.4462 9.80398L36.2559 10.0028C36.7435 10.1212 37.1069 10.3023 37.3461 10.5462C37.5852 10.7876 37.7047 11.099 37.7047 11.4801C37.7047 11.7926 37.6148 12.072 37.4348 12.3182C37.2573 12.5644 37.0087 12.7585 36.6891 12.9006C36.3695 13.0426 35.9978 13.1136 35.574 13.1136C35.0177 13.1136 34.5572 12.9929 34.1926 12.7514C33.8281 12.5099 33.5972 12.1572 33.5002 11.6932L34.2956 11.4943C34.3714 11.7879 34.5146 12.008 34.7253 12.1548C34.9384 12.3016 35.2166 12.375 35.5598 12.375C35.9505 12.375 36.2606 12.2921 36.4902 12.1264C36.7222 11.9583 36.8382 11.7571 36.8382 11.5227C36.8382 11.3333 36.772 11.1747 36.6394 11.0469C36.5068 10.9167 36.3032 10.8196 36.0286 10.7557L35.1195 10.5426C34.62 10.4242 34.253 10.2408 34.0186 9.99219C33.7866 9.74124 33.6706 9.42756 33.6706 9.05114C33.6706 8.74337 33.757 8.47112 33.9299 8.23438C34.1051 7.99763 34.343 7.81179 34.6436 7.67685C34.9467 7.5419 35.29 7.47443 35.6735 7.47443C36.2132 7.47443 36.637 7.5928 36.9448 7.82955C37.2549 8.06629 37.4751 8.37879 37.6053 8.76705ZM44.1509 7.54545V8.25568H41.3242V7.54545H44.1509ZM42.1481 6.23864H42.9862V11.4375C42.9862 11.6742 43.0205 11.8518 43.0891 11.9702C43.1602 12.0862 43.2501 12.1643 43.359 12.2045C43.4703 12.2424 43.5875 12.2614 43.7106 12.2614C43.8029 12.2614 43.8787 12.2566 43.9379 12.2472C43.997 12.2353 44.0444 12.2259 44.0799 12.2188L44.2504 12.9716C44.1935 12.9929 44.1142 13.0142 44.0124 13.0355C43.9106 13.0592 43.7816 13.071 43.6254 13.071C43.3886 13.071 43.1566 13.0201 42.9293 12.9183C42.7044 12.8165 42.5174 12.6615 42.3683 12.4531C42.2215 12.2448 42.1481 11.982 42.1481 11.6648V6.23864ZM47.5689 13.1136C47.0765 13.1136 46.6444 12.9964 46.2727 12.7621C45.9034 12.5277 45.6146 12.1998 45.4062 11.7784C45.2003 11.357 45.0973 10.8646 45.0973 10.3011C45.0973 9.73295 45.2003 9.23698 45.4062 8.81321C45.6146 8.38944 45.9034 8.06037 46.2727 7.82599C46.6444 7.59162 47.0765 7.47443 47.5689 7.47443C48.0613 7.47443 48.4922 7.59162 48.8615 7.82599C49.2332 8.06037 49.522 8.38944 49.728 8.81321C49.9363 9.23698 50.0405 9.73295 50.0405 10.3011C50.0405 10.8646 49.9363 11.357 49.728 11.7784C49.522 12.1998 49.2332 12.5277 48.8615 12.7621C48.4922 12.9964 48.0613 13.1136 47.5689 13.1136ZM47.5689 12.3608C47.9429 12.3608 48.2507 12.2649 48.4922 12.0732C48.7337 11.8814 48.9124 11.6293 49.0284 11.3168C49.1444 11.0043 49.2024 10.6657 49.2024 10.3011C49.2024 9.93655 49.1444 9.59683 49.0284 9.28196C48.9124 8.96709 48.7337 8.71259 48.4922 8.51847C48.2507 8.32434 47.9429 8.22727 47.5689 8.22727C47.1948 8.22727 46.8871 8.32434 46.6456 8.51847C46.4041 8.71259 46.2254 8.96709 46.1094 9.28196C45.9934 9.59683 45.9354 9.93655 45.9354 10.3011C45.9354 10.6657 45.9934 11.0043 46.1094 11.3168C46.2254 11.6293 46.4041 11.8814 46.6456 12.0732C46.8871 12.2649 47.1948 12.3608 47.5689 12.3608ZM56.1919 13.1136C55.7374 13.1136 55.3361 12.9988 54.9881 12.7692C54.6401 12.5372 54.3678 12.2105 54.1713 11.7891C53.9748 11.3653 53.8766 10.8646 53.8766 10.2869C53.8766 9.71402 53.9748 9.21686 54.1713 8.79545C54.3678 8.37405 54.6413 8.04853 54.9917 7.81889C55.342 7.58925 55.7469 7.47443 56.2061 7.47443C56.5613 7.47443 56.8418 7.53362 57.0478 7.65199C57.2561 7.76799 57.4147 7.90057 57.5236 8.04972C57.6349 8.1965 57.7213 8.31723 57.7828 8.41193H57.8539V5.72727H58.6919V13H57.8823V12.1619H57.7828C57.7213 12.2614 57.6337 12.3868 57.5201 12.5384C57.4064 12.6875 57.2443 12.8213 57.0336 12.9396C56.8229 13.0556 56.5423 13.1136 56.1919 13.1136ZM56.3056 12.3608C56.6417 12.3608 56.9258 12.2732 57.1578 12.098C57.3899 11.9205 57.5662 11.6754 57.687 11.3629C57.8077 11.0481 57.8681 10.6847 57.8681 10.2727C57.8681 9.86553 57.8089 9.50923 57.6905 9.20384C57.5721 8.89607 57.397 8.65696 57.165 8.48651C56.9329 8.31368 56.6465 8.22727 56.3056 8.22727C55.9505 8.22727 55.6545 8.31842 55.4178 8.50071C55.1834 8.68063 55.007 8.92566 54.8887 9.2358C54.7727 9.54356 54.7147 9.8892 54.7147 10.2727C54.7147 10.661 54.7739 11.0137 54.8922 11.331C55.013 11.6458 55.1905 11.8968 55.4249 12.0838C55.6616 12.2685 55.9552 12.3608 56.3056 12.3608ZM62.5591 13.1136C62.0667 13.1136 61.6346 12.9964 61.263 12.7621C60.8936 12.5277 60.6048 12.1998 60.3965 11.7784C60.1905 11.357 60.0875 10.8646 60.0875 10.3011C60.0875 9.73295 60.1905 9.23698 60.3965 8.81321C60.6048 8.38944 60.8936 8.06037 61.263 7.82599C61.6346 7.59162 62.0667 7.47443 62.5591 7.47443C63.0516 7.47443 63.4824 7.59162 63.8517 7.82599C64.2234 8.06037 64.5123 8.38944 64.7182 8.81321C64.9266 9.23698 65.0307 9.73295 65.0307 10.3011C65.0307 10.8646 64.9266 11.357 64.7182 11.7784C64.5123 12.1998 64.2234 12.5277 63.8517 12.7621C63.4824 12.9964 63.0516 13.1136 62.5591 13.1136ZM62.5591 12.3608C62.9332 12.3608 63.2409 12.2649 63.4824 12.0732C63.7239 11.8814 63.9026 11.6293 64.0186 11.3168C64.1346 11.0043 64.1926 10.6657 64.1926 10.3011C64.1926 9.93655 64.1346 9.59683 64.0186 9.28196C63.9026 8.96709 63.7239 8.71259 63.4824 8.51847C63.2409 8.32434 62.9332 8.22727 62.5591 8.22727C62.1851 8.22727 61.8773 8.32434 61.6358 8.51847C61.3944 8.71259 61.2156 8.96709 61.0996 9.28196C60.9836 9.59683 60.9256 9.93655 60.9256 10.3011C60.9256 10.6657 60.9836 11.0043 61.0996 11.3168C61.2156 11.6293 61.3944 11.8814 61.6358 12.0732C61.8773 12.2649 62.1851 12.3608 62.5591 12.3608ZM9.76705 25V19.5455H10.6051V25H9.76705ZM10.1932 18.6364C10.0298 18.6364 9.88897 18.5807 9.7706 18.4695C9.65459 18.3582 9.59659 18.2244 9.59659 18.0682C9.59659 17.9119 9.65459 17.7782 9.7706 17.6669C9.88897 17.5556 10.0298 17.5 10.1932 17.5C10.3565 17.5 10.4962 17.5556 10.6122 17.6669C10.7306 17.7782 10.7898 17.9119 10.7898 18.0682C10.7898 18.2244 10.7306 18.3582 10.6122 18.4695C10.4962 18.5807 10.3565 18.6364 10.1932 18.6364ZM12.9782 21.7188V25H12.1401V19.5455H12.9498V20.3977H13.0208C13.1486 20.1207 13.3427 19.8982 13.6032 19.7301C13.8636 19.5597 14.1998 19.4744 14.6117 19.4744C14.981 19.4744 15.3042 19.5502 15.5811 19.7017C15.8581 19.8509 16.0736 20.0781 16.2275 20.3835C16.3813 20.6866 16.4583 21.0701 16.4583 21.5341V25H15.6202V21.5909C15.6202 21.1624 15.5089 20.8286 15.2864 20.5895C15.0639 20.348 14.7585 20.2273 14.3702 20.2273C14.1027 20.2273 13.8636 20.2853 13.6529 20.4013C13.4445 20.5173 13.28 20.6866 13.1593 20.9091C13.0385 21.1316 12.9782 21.4015 12.9782 21.7188ZM21.8533 20.767L21.1005 20.9801C21.0531 20.8546 20.9833 20.7327 20.891 20.6143C20.801 20.4936 20.6779 20.3942 20.5217 20.3161C20.3654 20.2379 20.1654 20.1989 19.9215 20.1989C19.5877 20.1989 19.3095 20.2758 19.087 20.4297C18.8668 20.5812 18.7567 20.7741 18.7567 21.0085C18.7567 21.2169 18.8325 21.3814 18.984 21.5021C19.1355 21.6229 19.3723 21.7235 19.6942 21.804L20.5039 22.0028C20.9916 22.1212 21.355 22.3023 21.5941 22.5462C21.8332 22.7876 21.9528 23.099 21.9528 23.4801C21.9528 23.7926 21.8628 24.072 21.6829 24.3182C21.5053 24.5644 21.2567 24.7585 20.9371 24.9006C20.6175 25.0426 20.2459 25.1136 19.8221 25.1136C19.2657 25.1136 18.8053 24.9929 18.4407 24.7514C18.0761 24.5099 17.8453 24.1572 17.7482 23.6932L18.5437 23.4943C18.6194 23.7879 18.7627 24.008 18.9734 24.1548C19.1864 24.3016 19.4646 24.375 19.8079 24.375C20.1985 24.375 20.5086 24.2921 20.7383 24.1264C20.9703 23.9583 21.0863 23.7571 21.0863 23.5227C21.0863 23.3333 21.02 23.1747 20.8874 23.0469C20.7549 22.9167 20.5513 22.8196 20.2766 22.7557L19.3675 22.5426C18.868 22.4242 18.5011 22.2408 18.2667 21.9922C18.0347 21.7412 17.9187 21.4276 17.9187 21.0511C17.9187 20.7434 18.0051 20.4711 18.1779 20.2344C18.3531 19.9976 18.591 19.8118 18.8917 19.6768C19.1947 19.5419 19.538 19.4744 19.9215 19.4744C20.4613 19.4744 20.8851 19.5928 21.1928 19.8295C21.503 20.0663 21.7231 20.3788 21.8533 20.767ZM25.5865 19.5455V20.2557H22.7598V19.5455H25.5865ZM23.5836 18.2386H24.4217V23.4375C24.4217 23.6742 24.456 23.8518 24.5247 23.9702C24.5957 24.0862 24.6857 24.1643 24.7946 24.2045C24.9058 24.2424 25.023 24.2614 25.1461 24.2614C25.2385 24.2614 25.3142 24.2566 25.3734 24.2472C25.4326 24.2353 25.4799 24.2259 25.5154 24.2188L25.6859 24.9716C25.6291 24.9929 25.5498 25.0142 25.448 25.0355C25.3462 25.0592 25.2172 25.071 25.0609 25.071C24.8242 25.071 24.5922 25.0201 24.3649 24.9183C24.14 24.8165 23.9529 24.6615 23.8038 24.4531C23.657 24.2448 23.5836 23.982 23.5836 23.6648V18.2386ZM29.0755 25.1136C28.5499 25.1136 28.0965 24.9976 27.7154 24.7656C27.3366 24.5312 27.0442 24.2045 26.8382 23.7855C26.6346 23.3641 26.5328 22.8741 26.5328 22.3153C26.5328 21.7566 26.6346 21.2642 26.8382 20.8381C27.0442 20.4096 27.3307 20.0758 27.6976 19.8366C28.0669 19.5952 28.4978 19.4744 28.9902 19.4744C29.2743 19.4744 29.5549 19.5218 29.8319 19.6165C30.1088 19.7112 30.361 19.8651 30.5882 20.0781C30.8155 20.2888 30.9966 20.5682 31.1316 20.9162C31.2665 21.2642 31.334 21.6927 31.334 22.2017V22.5568H27.1294V21.8324H30.4817C30.4817 21.5246 30.4202 21.25 30.2971 21.0085C30.1763 20.767 30.0035 20.5765 29.7786 20.4368C29.556 20.2971 29.2933 20.2273 28.9902 20.2273C28.6564 20.2273 28.3676 20.3101 28.1238 20.4759C27.8823 20.6392 27.6964 20.8523 27.5662 21.1151C27.436 21.3778 27.3709 21.6596 27.3709 21.9602V22.4432C27.3709 22.8551 27.4419 23.2043 27.584 23.4908C27.7284 23.7749 27.9284 23.9915 28.1841 24.1406C28.4398 24.2874 28.7369 24.3608 29.0755 24.3608C29.2956 24.3608 29.4945 24.33 29.6721 24.2685C29.852 24.2045 30.007 24.1098 30.1373 23.9844C30.2675 23.8565 30.3681 23.6979 30.4391 23.5085L31.2488 23.7358C31.1635 24.0104 31.0203 24.2519 30.8191 24.4602C30.6178 24.6662 30.3693 24.8272 30.0733 24.9432C29.7774 25.0568 29.4448 25.1136 29.0755 25.1136ZM34.214 25.1278C33.8683 25.1278 33.5546 25.0627 33.2729 24.9325C32.9912 24.8 32.7675 24.6094 32.6017 24.3608C32.436 24.1098 32.3532 23.8068 32.3532 23.4517C32.3532 23.1392 32.4147 22.8859 32.5378 22.6918C32.6609 22.4953 32.8255 22.3414 33.0314 22.2301C33.2374 22.1188 33.4647 22.036 33.7132 21.9815C33.9642 21.9247 34.2163 21.8797 34.4696 21.8466C34.8011 21.804 35.0698 21.772 35.2757 21.7507C35.4841 21.727 35.6356 21.688 35.7303 21.6335C35.8274 21.5791 35.8759 21.4844 35.8759 21.3494V21.321C35.8759 20.9706 35.78 20.6984 35.5882 20.5043C35.3989 20.3101 35.1112 20.2131 34.7253 20.2131C34.3252 20.2131 34.0115 20.3007 33.7843 20.4759C33.557 20.651 33.3972 20.8381 33.3049 21.0369L32.5094 20.7528C32.6515 20.4214 32.8408 20.1634 33.0776 19.9787C33.3167 19.7917 33.5771 19.6615 33.8588 19.5881C34.1429 19.5123 34.4223 19.4744 34.6969 19.4744C34.8721 19.4744 35.0733 19.4957 35.3006 19.5384C35.5302 19.5786 35.7516 19.6626 35.9647 19.7905C36.1801 19.9183 36.3588 20.1113 36.5009 20.3693C36.6429 20.6274 36.714 20.973 36.714 21.4062V25H35.8759V24.2614H35.8333C35.7765 24.3797 35.6818 24.5064 35.5492 24.6413C35.4166 24.7763 35.2402 24.8911 35.0201 24.9858C34.7999 25.0805 34.5312 25.1278 34.214 25.1278ZM34.3418 24.375C34.6732 24.375 34.9526 24.3099 35.1799 24.1797C35.4095 24.0495 35.5823 23.8814 35.6983 23.6754C35.8167 23.4695 35.8759 23.2528 35.8759 23.0256V22.2585C35.8404 22.3011 35.7623 22.3402 35.6415 22.3757C35.5231 22.4089 35.3858 22.4384 35.2296 22.4645C35.0757 22.4882 34.9254 22.5095 34.7786 22.5284C34.6342 22.545 34.517 22.5592 34.427 22.571C34.2092 22.5994 34.0056 22.6456 33.8162 22.7095C33.6292 22.7711 33.4777 22.8646 33.3617 22.9901C33.248 23.1132 33.1912 23.2812 33.1912 23.4943C33.1912 23.7855 33.2989 24.0057 33.5144 24.1548C33.7322 24.3016 34.008 24.375 34.3418 24.375ZM40.3033 25.1136C39.8487 25.1136 39.4474 24.9988 39.0994 24.7692C38.7514 24.5372 38.4792 24.2105 38.2827 23.7891C38.0862 23.3653 37.9879 22.8646 37.9879 22.2869C37.9879 21.714 38.0862 21.2169 38.2827 20.7955C38.4792 20.3741 38.7526 20.0485 39.103 19.8189C39.4534 19.5893 39.8582 19.4744 40.3175 19.4744C40.6726 19.4744 40.9531 19.5336 41.1591 19.652C41.3674 19.768 41.526 19.9006 41.6349 20.0497C41.7462 20.1965 41.8326 20.3172 41.8942 20.4119H41.9652V17.7273H42.8033V25H41.9936V24.1619H41.8942C41.8326 24.2614 41.745 24.3868 41.6314 24.5384C41.5178 24.6875 41.3556 24.8213 41.1449 24.9396C40.9342 25.0556 40.6536 25.1136 40.3033 25.1136ZM40.4169 24.3608C40.7531 24.3608 41.0372 24.2732 41.2692 24.098C41.5012 23.9205 41.6776 23.6754 41.7983 23.3629C41.919 23.0481 41.9794 22.6847 41.9794 22.2727C41.9794 21.8655 41.9202 21.5092 41.8018 21.2038C41.6835 20.8961 41.5083 20.657 41.2763 20.4865C41.0443 20.3137 40.7578 20.2273 40.4169 20.2273C40.0618 20.2273 39.7659 20.3184 39.5291 20.5007C39.2947 20.6806 39.1184 20.9257 39 21.2358C38.884 21.5436 38.826 21.8892 38.826 22.2727C38.826 22.661 38.8852 23.0137 39.0036 23.331C39.1243 23.6458 39.3018 23.8968 39.5362 24.0838C39.773 24.2685 40.0665 24.3608 40.4169 24.3608ZM49.483 25.1136C48.9905 25.1136 48.5585 24.9964 48.1868 24.7621C47.8175 24.5277 47.5286 24.1998 47.3203 23.7784C47.1143 23.357 47.0114 22.8646 47.0114 22.3011C47.0114 21.733 47.1143 21.237 47.3203 20.8132C47.5286 20.3894 47.8175 20.0604 48.1868 19.826C48.5585 19.5916 48.9905 19.4744 49.483 19.4744C49.9754 19.4744 50.4063 19.5916 50.7756 19.826C51.1473 20.0604 51.4361 20.3894 51.642 20.8132C51.8504 21.237 51.9545 21.733 51.9545 22.3011C51.9545 22.8646 51.8504 23.357 51.642 23.7784C51.4361 24.1998 51.1473 24.5277 50.7756 24.7621C50.4063 24.9964 49.9754 25.1136 49.483 25.1136ZM49.483 24.3608C49.857 24.3608 50.1648 24.2649 50.4062 24.0732C50.6477 23.8814 50.8265 23.6293 50.9425 23.3168C51.0585 23.0043 51.1165 22.6657 51.1165 22.3011C51.1165 21.9366 51.0585 21.5968 50.9425 21.282C50.8265 20.9671 50.6477 20.7126 50.4062 20.5185C50.1648 20.3243 49.857 20.2273 49.483 20.2273C49.1089 20.2273 48.8011 20.3243 48.5597 20.5185C48.3182 20.7126 48.1394 20.9671 48.0234 21.282C47.9074 21.5968 47.8494 21.9366 47.8494 22.3011C47.8494 22.6657 47.9074 23.0043 48.0234 23.3168C48.1394 23.6293 48.3182 23.8814 48.5597 24.0732C48.8011 24.2649 49.1089 24.3608 49.483 24.3608ZM55.6628 19.5455V20.2557H52.7225V19.5455H55.6628ZM53.6032 25V18.7926C53.6032 18.4801 53.6766 18.2197 53.8233 18.0114C53.9701 17.803 54.1607 17.6468 54.3951 17.5426C54.6294 17.4384 54.8768 17.3864 55.1373 17.3864C55.3432 17.3864 55.5113 17.4029 55.6415 17.4361C55.7717 17.4692 55.8688 17.5 55.9327 17.5284L55.6912 18.2528C55.6486 18.2386 55.5894 18.2209 55.5137 18.1996C55.4403 18.1783 55.3432 18.1676 55.2225 18.1676C54.9455 18.1676 54.7454 18.2375 54.6223 18.3771C54.5016 18.5168 54.4412 18.7216 54.4412 18.9915V25H53.6032ZM11.8267 37.1136C11.3722 37.1136 10.9709 36.9988 10.6229 36.7692C10.2749 36.5372 10.0026 36.2105 9.80611 35.7891C9.60961 35.3653 9.51136 34.8646 9.51136 34.2869C9.51136 33.714 9.60961 33.2169 9.80611 32.7955C10.0026 32.3741 10.276 32.0485 10.6264 31.8189C10.9768 31.5893 11.3816 31.4744 11.8409 31.4744C12.196 31.4744 12.4766 31.5336 12.6825 31.652C12.8909 31.768 13.0495 31.9006 13.1584 32.0497C13.2696 32.1965 13.3561 32.3172 13.4176 32.4119H13.4886V29.7273H14.3267V37H13.517V36.1619H13.4176C13.3561 36.2614 13.2685 36.3868 13.1548 36.5384C13.0412 36.6875 12.879 36.8213 12.6683 36.9396C12.4576 37.0556 12.1771 37.1136 11.8267 37.1136ZM11.9403 36.3608C12.2765 36.3608 12.5606 36.2732 12.7926 36.098C13.0246 35.9205 13.201 35.6754 13.3217 35.3629C13.4425 35.0481 13.5028 34.6847 13.5028 34.2727C13.5028 33.8655 13.4437 33.5092 13.3253 33.2038C13.2069 32.8961 13.0317 32.657 12.7997 32.4865C12.5677 32.3137 12.2813 32.2273 11.9403 32.2273C11.5852 32.2273 11.2893 32.3184 11.0526 32.5007C10.8182 32.6806 10.6418 32.9257 10.5234 33.2358C10.4074 33.5436 10.3494 33.8892 10.3494 34.2727C10.3494 34.661 10.4086 35.0137 10.527 35.331C10.6477 35.6458 10.8253 35.8968 11.0597 36.0838C11.2964 36.2685 11.59 36.3608 11.9403 36.3608ZM18.1939 37.1136C17.7015 37.1136 17.2694 36.9964 16.8977 36.7621C16.5284 36.5277 16.2396 36.1998 16.0312 35.7784C15.8253 35.357 15.7223 34.8646 15.7223 34.3011C15.7223 33.733 15.8253 33.237 16.0312 32.8132C16.2396 32.3894 16.5284 32.0604 16.8977 31.826C17.2694 31.5916 17.7015 31.4744 18.1939 31.4744C18.6863 31.4744 19.1172 31.5916 19.4865 31.826C19.8582 32.0604 20.147 32.3894 20.353 32.8132C20.5613 33.237 20.6655 33.733 20.6655 34.3011C20.6655 34.8646 20.5613 35.357 20.353 35.7784C20.147 36.1998 19.8582 36.5277 19.4865 36.7621C19.1172 36.9964 18.6863 37.1136 18.1939 37.1136ZM18.1939 36.3608C18.5679 36.3608 18.8757 36.2649 19.1172 36.0732C19.3587 35.8814 19.5374 35.6293 19.6534 35.3168C19.7694 35.0043 19.8274 34.6657 19.8274 34.3011C19.8274 33.9366 19.7694 33.5968 19.6534 33.282C19.5374 32.9671 19.3587 32.7126 19.1172 32.5185C18.8757 32.3243 18.5679 32.2273 18.1939 32.2273C17.8198 32.2273 17.5121 32.3243 17.2706 32.5185C17.0291 32.7126 16.8504 32.9671 16.7344 33.282C16.6184 33.5968 16.5604 33.9366 16.5604 34.3011C16.5604 34.6657 16.6184 35.0043 16.7344 35.3168C16.8504 35.6293 17.0291 35.8814 17.2706 36.0732C17.5121 36.2649 17.8198 36.3608 18.1939 36.3608ZM24.1607 37.1136C23.6683 37.1136 23.2362 36.9964 22.8645 36.7621C22.4952 36.5277 22.2064 36.1998 21.998 35.7784C21.7921 35.357 21.6891 34.8646 21.6891 34.3011C21.6891 33.733 21.7921 33.237 21.998 32.8132C22.2064 32.3894 22.4952 32.0604 22.8645 31.826C23.2362 31.5916 23.6683 31.4744 24.1607 31.4744C24.6531 31.4744 25.084 31.5916 25.4533 31.826C25.825 32.0604 26.1138 32.3894 26.3198 32.8132C26.5281 33.237 26.6323 33.733 26.6323 34.3011C26.6323 34.8646 26.5281 35.357 26.3198 35.7784C26.1138 36.1998 25.825 36.5277 25.4533 36.7621C25.084 36.9964 24.6531 37.1136 24.1607 37.1136ZM24.1607 36.3608C24.5347 36.3608 24.8425 36.2649 25.084 36.0732C25.3255 35.8814 25.5042 35.6293 25.6202 35.3168C25.7362 35.0043 25.7942 34.6657 25.7942 34.3011C25.7942 33.9366 25.7362 33.5968 25.6202 33.282C25.5042 32.9671 25.3255 32.7126 25.084 32.5185C24.8425 32.3243 24.5347 32.2273 24.1607 32.2273C23.7866 32.2273 23.4789 32.3243 23.2374 32.5185C22.9959 32.7126 22.8172 32.9671 22.7012 33.282C22.5852 33.5968 22.5272 33.9366 22.5272 34.3011C22.5272 34.6657 22.5852 35.0043 22.7012 35.3168C22.8172 35.6293 22.9959 35.8814 23.2374 36.0732C23.4789 36.2649 23.7866 36.3608 24.1607 36.3608ZM27.9116 37V31.5455H28.7212V32.3977H28.7923C28.9059 32.1065 29.0894 31.8804 29.3427 31.7195C29.596 31.5561 29.9002 31.4744 30.2553 31.4744C30.6152 31.4744 30.9147 31.5561 31.1538 31.7195C31.3952 31.8804 31.5835 32.1065 31.7184 32.3977H31.7752C31.9149 32.116 32.1244 31.8923 32.4038 31.7266C32.6831 31.5585 33.0181 31.4744 33.4087 31.4744C33.8964 31.4744 34.2953 31.6271 34.6055 31.9325C34.9156 32.2356 35.0707 32.7079 35.0707 33.3494V37H34.2326V33.3494C34.2326 32.947 34.1225 32.6593 33.9023 32.4865C33.6822 32.3137 33.4229 32.2273 33.1246 32.2273C32.7411 32.2273 32.444 32.3433 32.2333 32.5753C32.0226 32.8049 31.9173 33.0961 31.9173 33.4489V37H31.065V33.2642C31.065 32.9541 30.9644 32.7043 30.7631 32.5149C30.5619 32.3232 30.3027 32.2273 29.9854 32.2273C29.7676 32.2273 29.564 32.2853 29.3746 32.4013C29.1876 32.5173 29.0361 32.6783 28.9201 32.8842C28.8065 33.0878 28.7496 33.3234 28.7496 33.5909V37H27.9116ZM40.4666 32.767L39.7138 32.9801C39.6664 32.8546 39.5966 32.7327 39.5043 32.6143C39.4143 32.4936 39.2912 32.3942 39.1349 32.3161C38.9787 32.2379 38.7786 32.1989 38.5348 32.1989C38.201 32.1989 37.9228 32.2758 37.7003 32.4297C37.4801 32.5812 37.37 32.7741 37.37 33.0085C37.37 33.2169 37.4458 33.3814 37.5973 33.5021C37.7488 33.6229 37.9856 33.7235 38.3075 33.804L39.1172 34.0028C39.6049 34.1212 39.9683 34.3023 40.2074 34.5462C40.4465 34.7876 40.5661 35.099 40.5661 35.4801C40.5661 35.7926 40.4761 36.072 40.2962 36.3182C40.1186 36.5644 39.87 36.7585 39.5504 36.9006C39.2308 37.0426 38.8591 37.1136 38.4354 37.1136C37.879 37.1136 37.4186 36.9929 37.054 36.7514C36.6894 36.5099 36.4586 36.1572 36.3615 35.6932L37.157 35.4943C37.2327 35.7879 37.3759 36.008 37.5866 36.1548C37.7997 36.3016 38.0779 36.375 38.4212 36.375C38.8118 36.375 39.1219 36.2921 39.3516 36.1264C39.5836 35.9583 39.6996 35.7571 39.6996 35.5227C39.6996 35.3333 39.6333 35.1747 39.5007 35.0469C39.3681 34.9167 39.1645 34.8196 38.8899 34.7557L37.9808 34.5426C37.4813 34.4242 37.1143 34.2408 36.88 33.9922C36.648 33.7412 36.532 33.4276 36.532 33.0511C36.532 32.7434 36.6184 32.4711 36.7912 32.2344C36.9664 31.9976 37.2043 31.8118 37.505 31.6768C37.808 31.5419 38.1513 31.4744 38.5348 31.4744C39.0746 31.4744 39.4983 31.5928 39.8061 31.8295C40.1162 32.0663 40.3364 32.3788 40.4666 32.767ZM44.0435 37.1136C43.5321 37.1136 43.0918 36.9929 42.7225 36.7514C42.3532 36.5099 42.0691 36.1773 41.8702 35.7536C41.6713 35.3298 41.5719 34.8456 41.5719 34.3011C41.5719 33.7472 41.6737 33.2583 41.8773 32.8345C42.0833 32.4084 42.3697 32.0758 42.7367 31.8366C43.106 31.5952 43.5369 31.4744 44.0293 31.4744C44.4128 31.4744 44.7585 31.5455 45.0662 31.6875C45.374 31.8295 45.6261 32.0284 45.8226 32.2841C46.0191 32.5398 46.141 32.8381 46.1884 33.179H45.3503C45.2864 32.9304 45.1444 32.7102 44.9242 32.5185C44.7064 32.3243 44.4128 32.2273 44.0435 32.2273C43.7168 32.2273 43.4303 32.3125 43.1841 32.483C42.9403 32.651 42.7497 32.889 42.6124 33.1967C42.4775 33.5021 42.41 33.8608 42.41 34.2727C42.41 34.6941 42.4763 35.0611 42.6088 35.3736C42.7438 35.6861 42.9332 35.9287 43.177 36.1016C43.4232 36.2744 43.7121 36.3608 44.0435 36.3608C44.2613 36.3608 44.459 36.3229 44.6365 36.2472C44.8141 36.1714 44.9644 36.0625 45.0875 35.9205C45.2106 35.7784 45.2982 35.608 45.3503 35.4091H46.1884C46.141 35.7311 46.0239 36.0211 45.8368 36.2791C45.6522 36.5348 45.4071 36.7384 45.1017 36.8899C44.7987 37.0391 44.446 37.1136 44.0435 37.1136ZM47.4135 37V31.5455H48.2232V32.3693H48.28C48.3794 32.0994 48.5594 31.8804 48.8198 31.7124C49.0802 31.5443 49.3738 31.4602 49.7005 31.4602C49.762 31.4602 49.839 31.4614 49.9313 31.4638C50.0236 31.4661 50.0935 31.4697 50.1408 31.4744V32.3267C50.1124 32.3196 50.0473 32.3089 49.9455 32.2947C49.8461 32.2782 49.7407 32.2699 49.6294 32.2699C49.3643 32.2699 49.1275 32.3255 48.9192 32.4368C48.7132 32.5457 48.5499 32.6972 48.4292 32.8913C48.3108 33.0831 48.2516 33.3021 48.2516 33.5483V37H47.4135ZM53.1841 37.1136C52.6917 37.1136 52.2596 36.9964 51.888 36.7621C51.5186 36.5277 51.2298 36.1998 51.0215 35.7784C50.8155 35.357 50.7125 34.8646 50.7125 34.3011C50.7125 33.733 50.8155 33.237 51.0215 32.8132C51.2298 32.3894 51.5186 32.0604 51.888 31.826C52.2596 31.5916 52.6917 31.4744 53.1841 31.4744C53.6766 31.4744 54.1074 31.5916 54.4767 31.826C54.8484 32.0604 55.1373 32.3894 55.3432 32.8132C55.5516 33.237 55.6557 33.733 55.6557 34.3011C55.6557 34.8646 55.5516 35.357 55.3432 35.7784C55.1373 36.1998 54.8484 36.5277 54.4767 36.7621C54.1074 36.9964 53.6766 37.1136 53.1841 37.1136ZM53.1841 36.3608C53.5582 36.3608 53.8659 36.2649 54.1074 36.0732C54.3489 35.8814 54.5276 35.6293 54.6436 35.3168C54.7596 35.0043 54.8176 34.6657 54.8176 34.3011C54.8176 33.9366 54.7596 33.5968 54.6436 33.282C54.5276 32.9671 54.3489 32.7126 54.1074 32.5185C53.8659 32.3243 53.5582 32.2273 53.1841 32.2273C52.8101 32.2273 52.5023 32.3243 52.2608 32.5185C52.0194 32.7126 51.8406 32.9671 51.7246 33.282C51.6086 33.5968 51.5506 33.9366 51.5506 34.3011C51.5506 34.6657 51.6086 35.0043 51.7246 35.3168C51.8406 35.6293 52.0194 35.8814 52.2608 36.0732C52.5023 36.2649 52.8101 36.3608 53.1841 36.3608ZM57.7731 29.7273V37H56.935V29.7273H57.7731ZM60.1461 29.7273V37H59.3081V29.7273H60.1461ZM61.6811 37V31.5455H62.5192V37H61.6811ZM62.1072 30.6364C61.9439 30.6364 61.803 30.5807 61.6847 30.4695C61.5687 30.3582 61.5107 30.2244 61.5107 30.0682C61.5107 29.9119 61.5687 29.7782 61.6847 29.6669C61.803 29.5556 61.9439 29.5 62.1072 29.5C62.2706 29.5 62.4103 29.5556 62.5263 29.6669C62.6446 29.7782 62.7038 29.9119 62.7038 30.0682C62.7038 30.2244 62.6446 30.3582 62.5263 30.4695C62.4103 30.5807 62.2706 30.6364 62.1072 30.6364ZM64.8922 33.7188V37H64.0542V31.5455H64.8638V32.3977H64.9348C65.0627 32.1207 65.2568 31.8982 65.5172 31.7301C65.7776 31.5597 66.1138 31.4744 66.5257 31.4744C66.8951 31.4744 67.2182 31.5502 67.4952 31.7017C67.7722 31.8509 67.9876 32.0781 68.1415 32.3835C68.2954 32.6866 68.3723 33.0701 68.3723 33.5341V37H67.5343V33.5909C67.5343 33.1624 67.423 32.8286 67.2005 32.5895C66.9779 32.348 66.6725 32.2273 66.2843 32.2273C66.0167 32.2273 65.7776 32.2853 65.5669 32.4013C65.3586 32.5173 65.1941 32.6866 65.0733 32.9091C64.9526 33.1316 64.8922 33.4015 64.8922 33.7188ZM72.1055 39.1591C71.7006 39.1591 71.3526 39.107 71.0614 39.0028C70.7702 38.901 70.5276 38.7661 70.3335 38.598C70.1417 38.4323 69.989 38.2547 69.8754 38.0653L70.543 37.5966C70.6187 37.696 70.7146 37.8097 70.8306 37.9375C70.9466 38.0677 71.1052 38.1802 71.3065 38.2749C71.5101 38.3719 71.7764 38.4205 72.1055 38.4205C72.5458 38.4205 72.9092 38.3139 73.1957 38.1009C73.4821 37.8878 73.6254 37.554 73.6254 37.0994V35.9915H73.5543C73.4928 36.0909 73.4052 36.214 73.2915 36.3608C73.1803 36.5052 73.0193 36.6342 72.8086 36.7479C72.6003 36.8591 72.3185 36.9148 71.9634 36.9148C71.5231 36.9148 71.1277 36.8106 70.7773 36.6023C70.4293 36.3939 70.1535 36.0909 69.9499 35.6932C69.7487 35.2955 69.6481 34.8125 69.6481 34.2443C69.6481 33.6856 69.7463 33.1991 69.9428 32.7848C70.1393 32.3681 70.4128 32.0462 70.7631 31.8189C71.1135 31.5893 71.5183 31.4744 71.9776 31.4744C72.3327 31.4744 72.6145 31.5336 72.8228 31.652C73.0335 31.768 73.1945 31.9006 73.3058 32.0497C73.4194 32.1965 73.507 32.3172 73.5685 32.4119H73.6538V31.5455H74.4634V37.1562C74.4634 37.625 74.3569 38.0062 74.1438 38.2997C73.9331 38.5956 73.649 38.8123 73.2915 38.9496C72.9364 39.0893 72.5411 39.1591 72.1055 39.1591ZM72.0771 36.1619C72.4132 36.1619 72.6973 36.085 72.9293 35.9311C73.1613 35.7772 73.3377 35.5559 73.4585 35.267C73.5792 34.9782 73.6396 34.6326 73.6396 34.2301C73.6396 33.8371 73.5804 33.4903 73.462 33.1896C73.3436 32.889 73.1684 32.6534 72.9364 32.483C72.7044 32.3125 72.418 32.2273 72.0771 32.2273C71.7219 32.2273 71.426 32.3172 71.1893 32.4972C70.9549 32.6771 70.7785 32.9186 70.6602 33.2216C70.5442 33.5246 70.4862 33.8608 70.4862 34.2301C70.4862 34.6089 70.5453 34.9439 70.6637 35.2351C70.7844 35.5239 70.962 35.7512 71.1964 35.9169C71.4331 36.0803 71.7267 36.1619 72.0771 36.1619Z" fill="currentColor"/>
<path d="M26.1452 1C18.3492 1.52467 10.7233 1.54651 3.66255 1.88703M25.9686 1.30193C17.7856 1.31386 9.6967 1.34487 3.37012 1.70811" stroke="currentColor" stroke-width="0.5"/>
<path d="M3.14449 1.52571C2.44527 2.70293 1.81225 4.33439 1.29224 5.04303M3.30294 1.64006C2.45351 3.10218 1.5558 4.32367 1 4.98684" stroke="currentColor" stroke-width="0.5"/>
<path d="M1.11676 4.92328C1.63479 15.0648 2.34248 24.7409 3.72199 53.8425M1.17398 5.13686C2.35165 23.9077 3.35763 42.9804 3.52726 53.675" stroke="currentColor" stroke-width="0.5"/>
<path d="M3.75041 53.4592C3.96502 54.0745 4.69703 54.7285 5.58826 56.2329M3.74619 53.4991C4.39407 54.2086 5.02085 55.0491 6.0416 56.0229" stroke="currentColor" stroke-width="0.5"/>
<path d="M5.95622 56.3177C12.1117 55.5991 17.6767 55.5918 31.9216 55.0549M5.82065 56.2062C13.2057 55.8451 20.2777 55.4639 31.6001 54.9722" stroke="currentColor" stroke-width="0.5"/>
<path d="M31.6769 54.9899C31.7825 54.6661 32.0465 54.1425 32.2289 53.9688M31.671 54.9816C31.739 54.6389 31.9456 54.5025 32.3342 53.9749" stroke="currentColor" stroke-width="0.5"/>
<path d="M31.837 53.2234C32.1174 48.7361 32.0056 44.0485 31.8714 41.7991M32.1291 53.1691C31.9819 49.3392 31.7908 45.493 31.6848 41.9353" stroke="currentColor" stroke-width="0.5"/>
<path d="M20.1825 46.2067C20.0016 46.2695 19.2428 46.0522 17.7214 46.2383M20.2022 46.0768C19.7379 46.0323 19.3713 46.1809 17.7602 46.2342" stroke="currentColor" stroke-width="0.5"/>
<path d="M17.5512 46.32C17.3633 47.1304 16.9738 48.0209 16.6615 48.7124M17.7826 46.1245C17.3328 46.899 17.0547 47.5325 16.8139 48.5743" stroke="currentColor" stroke-width="0.5"/>
<path d="M16.6618 48.6967C16.9654 49.26 16.8833 50.0724 16.9644 51.2171M16.6333 48.4052C16.8053 49.0859 16.7654 49.6905 16.6058 51.0013" stroke="currentColor" stroke-width="0.5"/>
<path d="M16.6592 51.1111C17.4476 51.257 17.9567 51.0955 18.7953 51.6848M16.6245 51.0732C17.2399 51.1366 17.7108 51.2519 18.9125 51.5433" stroke="currentColor" stroke-width="0.5"/>
<path d="M18.7148 51.6736C19.5975 51.2946 20.8593 51.2282 21.3622 51.4354M18.8044 51.4199C19.6551 51.431 20.3044 51.3895 21.3606 51.3147" stroke="currentColor" stroke-width="0.5"/>
<path d="M21.1395 51.3648C21.6778 50.8257 22.0166 50.396 22.3833 49.72M21.2735 51.3453C21.7196 50.7049 22.1623 50.282 22.512 49.7916" stroke="currentColor" stroke-width="0.5"/>
<path d="M22.2258 49.6581C22.4775 49.1049 22.3573 49.0071 22.5214 47.2393M22.5632 49.7112C22.5697 49.0457 22.4209 47.9268 22.4243 47.1098" stroke="currentColor" stroke-width="0.5"/>
<path d="M22.2326 47.0137C22.0907 47.2174 21.1509 46.7885 20.3714 46.2472M22.5732 47.2744C21.7168 46.8586 20.7302 46.6186 20.2903 46.3776" stroke="currentColor" stroke-width="0.5"/>
</svg>
