<svg xmlns="http://www.w3.org/2000/svg" viewBox="0 0 512 512"><g><path d="M175.34747346824474 178.44312699743787 C176.25148966532433 154.13381431307954, 176.31353161056956 134.53807650264625, 177.17125016990462 102.78337675552706 M177.62106922662272 178.66701291630815 C177.7907156866502 159.96195647675006, 177.4450731922985 139.79255164570623, 177.00798477399113 102.52846164666664" stroke="currentColor" stroke-width="1" fill="none"/></g><g><path d="M178.7285339928328 102.36716765155231 C206.61657775670088 102.45935802079488, 230.9480231886017 101.96418686441143, 291.46333756621044 105.31542555448874 M176.23953590655842 102.95162533151482 C199.50551616536077 103.3276652606595, 223.54939533300947 103.05815130186902, 292.1623155698142 103.96547108141219" stroke="currentColor" stroke-width="1" fill="none"/></g><g><path d="M291.07784359660013 104.10431096890875 C293.22003279061084 127.31683618135388, 291.33354605144547 151.63723317808493, 288.4461778176634 182.66778490752634 M292.4770798941508 103.27353211937756 C293.11442104828353 132.60826860137922, 292.02907341168446 159.22636506347308, 289.1844810121251 182.75824215426385" stroke="currentColor" stroke-width="1" fill="none"/></g><g><path d="M288.71066845797804 182.15758048187857 C329.7263211497246 184.3392424449366, 364.85921964968054 183.61844178387307, 393.01538190947247 184.11433240715365 M289.3506492476957 182.3039419208581 C316.36441427187253 183.88306192705227, 341.9892311388105 184.06051181458, 393.5365877579026 186.48350620731776" stroke="currentColor" stroke-width="1" fill="none"/></g><g><path d="M391.16631168647257 187.2274839308271 C392.97821454415737 216.46656879666887, 391.31424967695403 248.52491469993763, 390.548414430715 282.0541559175831 M392.1876572514057 185.1630535607624 C391.87307120791735 209.0471649705382, 391.69902560937 233.6847118256321, 388.2979628487809 281.3057780963684" stroke="currentColor" stroke-width="1" fill="none"/></g><g><path d="M387.10417838058095 280.62686804428864 C363.89875078370653 281.28954322230794, 337.180665601438 282.0415267862105, 287.1321832540616 281.3899983559648 M388.99476551278946 281.8864594580807 C355.38229676483803 281.6747461349293, 319.345351177102 280.2560857888432, 286.54607418685066 280.41341241890154" stroke="currentColor" stroke-width="1" fill="none"/></g><g><path d="M288.1615026106405 281.77383384299225 C288.8676029456803 304.58818484150174, 285.74436142487355 331.46028389548746, 287.3828546690291 372.9125672169269 M286.70679740009604 280.1633607171435 C286.94114122025155 310.7454976331174, 285.779098436694 341.79746715351115, 286.8509065506125 371.3457317662943" stroke="currentColor" stroke-width="1" fill="none"/></g><g><path d="M287.5157862270274 371.14196027832213 C249.8711223958975 371.28102476569353, 217.32080150817444 367.61529802840386, 169.30136234831656 369.4480944325365 M286.8199431378154 370.2113397203508 C246.79038576810598 370.45351751890297, 208.0780883798594 369.7437595574091, 169.61128351928267 368.44923043054354" stroke="currentColor" stroke-width="1" fill="none"/></g><g><path d="M167.4114561641892 369.93747516875715 C169.09882451293234 344.7923812267012, 172.44896600529913 320.0826971073027, 173.94267578987257 278.70507935408693 M169.66620287960615 369.2461924680992 C169.62388229773035 348.6766026240741, 170.3415070158225 327.8511214846713, 174.30265467836585 280.21150737746626" stroke="currentColor" stroke-width="1" fill="none"/></g><g><path d="M174.71713396601658 280.3199050319731 C135.55129853936597 278.26541865635096, 100.03713490750953 280.05394516277613, 80.97079325881872 279.1633613847834 M173.37458176588152 279.753502339721 C153.31962861307076 279.45890396173013, 133.63510501260095 279.3726169607631, 80.7660108025287 280.26318211330744" stroke="currentColor" stroke-width="1" fill="none"/></g><g><path d="M82.82728190502468 281.5593306379525 C82.630431464979 247.8403249226797, 83.27685955088178 216.00324901465916, 85.57897134034327 177.37162367139507 M81.24789014595879 279.29782967207285 C81.31537373125447 256.0405110105433, 83.51819928328236 229.45405458425597, 85.45738103510567 178.92334731093882" stroke="currentColor" stroke-width="1" fill="none"/></g><g><path d="M85 179 C85 179, 85 179, 85 179 M85 179 C85 179, 85 179, 85 179" stroke="currentColor" stroke-width="1" fill="none"/></g><g><path d="M176.78510766323993 178.50145466145705 C144.0181746859719 176.1275269917124, 112.94991243073756 176.83936881169316, 86.73048844645555 177.02590228757396 M176.2615380587058 178.00684525541345 C153.20359950387666 177.72706970246793, 129.69905469696067 178.67745540045954, 84.11027523762147 177.1911794094982" stroke="currentColor" stroke-width="1" fill="none"/></g><g><path d="M291.0775610014221 100.77874487153008 C297.0123365227121 94.69795571585297, 305.5319897558865 89.36614775329181, 311.21888753993704 85.35562219684114 M292.9575946996889 101.47191372766586 C297.22425133084874 98.16601088469656, 302.26019649659236 92.98612142147925, 310.57876878725045 84.62797201863063" stroke="currentColor" stroke-width="1" fill="none"/></g><g><path d="M310.9026163825183 85.14048930052208 C307.1182880774897 104.82256766205639, 307.20876997904804 120.33246414552038, 306.69915928131604 154.8073140428036 M310.186599548269 84.17981923535156 C308.9800934320022 100.34968039636578, 308.472587340177 114.166858306815, 308.1632524125969 153.65696407040596" stroke="currentColor" stroke-width="1" fill="none"/></g><g><path d="M290.55142075040334 175.80258165980365 C294.69162235086384 171.39549699714175, 300.4123269180642 166.6250523391128, 312.8579612099594 148.0330724661444 M290.41476550158626 175.7896333075748 C298.94246770294285 165.8644708286404, 306.537647559613 155.48013184965038, 310.59576498471233 149.6687424924016" stroke="currentColor" stroke-width="1" fill="none"/></g><g><path d="M311 150 C311 150, 311 150, 311 150 M311 150 C311 150, 311 150, 311 150" stroke="currentColor" stroke-width="1" fill="none"/></g><g><path d="M309.5037471618029 151.70330348979627 C329.9563493270243 149.39886882941394, 349.975287544427 151.4225832778114, 404.74139464533897 151.3678847213606 M310.52838713369295 149.9219915235545 C333.6255357485944 151.4771868342157, 355.0932382110789 151.0407200314109, 405.4567927043358 152.77365916628824" stroke="currentColor" stroke-width="1" fill="none"/></g><g><path d="M390.15488215595315 188.77173666295533 C400.1789976065518 178.74648786889742, 405.00015816195236 167.91577441594086, 412.1130350373466 156.39775211910253 M391.39817755295417 189.16149402910295 C396.1530359282826 180.24472791359887, 402.57253179576554 171.6825442571486, 410.23793122740875 155.7777203240063" stroke="currentColor" stroke-width="1" fill="none"/></g><g><path d="M411.2665915264774 163.15957735157528 C410.97259731549195 182.80778757225391, 412.9987941943355 202.8579266050268, 409.51297626636915 243.57291870292113 M412.99225468750575 163.80929591936248 C411.90594141828456 189.83915484905455, 411.2689448457924 218.26398037177364, 410.5378038450127 242.45094828467361" stroke="currentColor" stroke-width="1" fill="none"/></g><g><path d="M412.0811378557108 243.4202234848906 C406.5305815955741 250.89192041628806, 399.98106230207844 259.8346827861094, 388.46007472587377 284.64765457623713 M411.1849414565742 241.78350217093282 C402.55236314491714 255.2778947485792, 396.0973507042424 269.6460845083441, 388.9331150755793 283.40354096733927" stroke="currentColor" stroke-width="1" fill="none"/></g><g><path d="M287.6966763621451 369.06914192803583 C290.36680190028846 363.80807319249516, 294.9037684208863 355.87254075979945, 309.6027745897844 340.41182289344204 M286.32331772513885 368.4629934423534 C291.3817433430315 362.2232371438163, 297.4612105609819 355.4853382922203, 308.37291849955534 339.9430811532981" stroke="currentColor" stroke-width="1" fill="none"/></g><g><path d="M308 340 C308 340, 308 340, 308 340 M308 340 C308 340, 308 340, 308 340" stroke="currentColor" stroke-width="1" fill="none"/></g><g><path d="M303.33832846516077 281.29663563257907 C305.0194686961347 294.4794422580192, 306.2240749812298 308.208742478939, 305.2005504915661 342.6944736925769 M305.0310083269914 280.549517830761 C306.4883325859892 296.42175073255453, 305.5967238877102 310.21366714554443, 306.6335128933326 343.4531140682779" stroke="currentColor" stroke-width="1" fill="none"/></g><g><path d="M178.25914341031745 100.71843363692317 C182.46736797399032 94.36742657267256, 188.66185519385087 91.8834448959582, 199.28827947486195 81.96562682912392 M177.42786892619418 99.77999992507681 C181.4515597848217 96.00609866133026, 185.46555136488652 92.47623746304527, 197.37226115737136 82.16152405639129" stroke="currentColor" stroke-width="1" fill="none"/></g><g><path d="M199.1510885090727 81.69646520811922 C231.37264488657326 81.48494382301897, 260.3436198015675 82.74912100817802, 308.5485829756778 82.08890453752826 M198.18662073436678 82.90371330972786 C231.76385043724886 84.22694232676737, 263.62846651796656 83.95296813787517, 307.12533774843496 84.79718986152635" stroke="currentColor" stroke-width="1" fill="none"/></g><g><path d="M83.3007548342481 172.0055330098746 C92.48477508908618 166.97634216149694, 100.05717789953165 164.87495614599578, 112.57933241330568 155.81665185962999 M84.12737550042874 173.63473861976064 C95.07495889115097 166.81177251923697, 103.36654531143732 160.55339848167722, 112.41968150642482 155.26536721659343" stroke="currentColor" stroke-width="1" fill="none"/></g><g><path d="M113.54263160779821 155.9713006820107 C135.44480314861835 153.42616367409636, 162.95439906163637 153.28826197091718, 178.4951049857208 152.03895511823913 M113.86909685899067 154.74244459108274 C137.28833205341604 154.05049195905556, 162.97840649793164 153.57339130373788, 178.3417274248435 153.23885960492686" stroke="currentColor" stroke-width="1" fill="none"/></g></svg>